<svg width="100" height="100" viewBox="0 0 100 100" fill="none" xmlns="http://www.w3.org/2000/svg">
<rect width="100" height="100" rx="20" fill="#91BE55"/>
<path d="M86.1395 38.4069C85.2837 36.4097 83.8621 34.9697 82.0273 34.2444L82.0026 34.2353C81.1674 33.9141 80.2783 33.7497 79.3814 33.7508H79.2827C75.0826 33.8128 70.7947 37.3182 68.6144 42.4741C67.0155 46.2445 66.832 50.2995 68.1241 53.3219C68.9783 55.3206 70.403 56.7606 72.2456 57.4859L72.2656 57.4935C73.1008 57.8145 73.9899 57.9788 74.8868 57.978C79.127 57.978 83.4597 54.4727 85.68 49.2486C87.2589 45.4828 87.4331 41.4308 86.1395 38.4069ZM69.3576 60.6445C66.9353 59.2151 64.6456 57.863 63.15 55.4342C59.024 48.7111 56.5323 44.653 49.9993 44.653C43.4664 44.653 40.9685 48.7111 36.8332 55.4342C35.3345 57.866 33.0402 59.2197 30.6102 60.6551C27.824 62.2996 24.9453 63.9985 23.7026 67.3419C23.2194 68.5471 22.9761 69.8321 22.9856 71.1274C22.9856 76.571 27.3029 81 32.6069 81C35.3438 81 38.2564 80.0688 41.3386 79.083C44.3021 78.1351 47.3658 77.1554 50.0148 77.1554C52.6637 77.1554 55.7197 78.1351 58.6724 79.083C61.7485 80.0627 64.6472 80.9939 67.3917 80.9939C72.6881 80.9939 76.9976 76.5649 76.9976 71.1213C77.002 69.8251 76.7534 68.5401 76.2653 67.3358C75.0225 63.9894 72.1423 62.289 69.3576 60.6445ZM33.6554 39.3306C35.4902 41.5913 37.8185 42.836 40.2115 42.836C40.5382 42.836 40.8644 42.8122 41.1875 42.7648C46.1786 42.0441 49.2885 36.0629 48.2678 29.137C47.8407 26.2252 46.6997 23.5132 45.0653 21.5024C43.2336 19.2462 40.9022 18.003 38.5108 18.003C38.1841 18.003 37.8579 18.0268 37.5348 18.0742C32.5437 18.795 29.4337 24.7761 30.4545 31.702C30.88 34.6093 32.021 37.3182 33.6554 39.3306ZM58.8127 42.7648C59.1358 42.8122 59.462 42.836 59.7887 42.836C62.1833 42.836 64.51 41.5913 66.3448 39.3306C67.9777 37.3182 69.1125 34.6093 69.5442 31.699C70.5649 24.7761 67.455 18.795 62.4639 18.0712C62.1408 18.0238 61.8146 18 61.4879 18C59.0964 18.003 56.7651 19.2462 54.9333 21.5024C53.299 23.5132 52.158 26.2252 51.7324 29.14C50.7117 36.0629 53.8217 42.0441 58.8127 42.7648ZM27.733 57.4935L27.7546 57.4859C29.5941 56.7606 31.0173 55.3221 31.8699 53.3249C33.162 50.2965 32.9801 46.246 31.3842 42.4756C29.1747 37.2577 24.8436 33.7508 20.608 33.7508C19.7111 33.7495 18.8219 33.9139 17.9868 34.2353L17.9652 34.2429C16.1304 34.9621 14.7072 36.4067 13.8546 38.4039C12.5625 41.4323 12.7444 45.4828 14.3403 49.2532C16.5498 54.4711 20.8809 57.978 25.1165 57.978C26.0119 57.9787 26.8994 57.8144 27.733 57.4935V57.4935Z" fill="white"/>
</svg>
