<?xml version="1.0" ?>
<!-- Uploaded to: SVG Repo, www.svgrepo.com, Generator: SVG Repo Mixer Tools -->
<svg width="800px" height="800px" viewBox="-4.29 0 18.927316 18.927316" id="svg8" version="1.1" xmlns="http://www.w3.org/2000/svg" xmlns:cc="http://creativecommons.org/ns#" xmlns:dc="http://purl.org/dc/elements/1.1/" xmlns:inkscape="http://www.inkscape.org/namespaces/inkscape" xmlns:rdf="http://www.w3.org/1999/02/22-rdf-syntax-ns#" xmlns:sodipodi="http://sodipodi.sourceforge.net/DTD/sodipodi-0.dtd" xmlns:svg="http://www.w3.org/2000/svg">
<defs id="defs2">
<clipPath clipPathUnits="userSpaceOnUse" id="clipPath23">
<rect height="170.00711" id="rect25" style="opacity:1;fill:none;fill-opacity:1;stroke:#000000;stroke-width:1.5;stroke-linecap:round;stroke-linejoin:round;stroke-miterlimit:4;stroke-dasharray:none;stroke-dashoffset:0;stroke-opacity:0.97641512" transform="rotate(90)" width="263.84616" x="6.7847877" y="110.36194"/>
</clipPath>
</defs>
<g id="layer1" transform="translate(17.262217,-600.09002)">
<rect height="58.184261" id="rect8011" ry="1.1433572" style="opacity:1;fill:none;fill-opacity:1;stroke:none;stroke-width:1.10699999;stroke-linecap:round;stroke-linejoin:round;stroke-miterlimit:4;stroke-dasharray:none;stroke-dashoffset:0;stroke-opacity:1" width="150.11761" x="-377.22021" y="-198.90477"/>
</g>
<g id="g8681" transform="translate(17.262217,-600.09002)">
<rect height="58.184261" id="rect8677" ry="1.1433572" style="opacity:1;fill:none;fill-opacity:1;stroke:none;stroke-width:1.10699999;stroke-linecap:round;stroke-linejoin:round;stroke-miterlimit:4;stroke-dasharray:none;stroke-dashoffset:0;stroke-opacity:1" width="150.11761" x="-377.22021" y="-198.90477"/>
</g>
<g id="g9233" transform="translate(17.262217,-600.09002)">
<rect height="58.184261" id="rect9229" ry="1.1433572" style="opacity:1;fill:none;fill-opacity:1;stroke:none;stroke-width:1.10699999;stroke-linecap:round;stroke-linejoin:round;stroke-miterlimit:4;stroke-dasharray:none;stroke-dashoffset:0;stroke-opacity:1" width="150.11761" x="-377.22021" y="-198.90477"/>
<rect height="368.83194" id="rect9311" ry="1.1433572" style="opacity:1;fill:none;fill-opacity:1;stroke:none;stroke-width:1.10699999;stroke-linecap:round;stroke-linejoin:round;stroke-miterlimit:4;stroke-dasharray:none;stroke-dashoffset:0;stroke-opacity:1" width="313.2399" x="-594.38983" y="-161.63449"/>
<ellipse cx="-12.086403" cy="618.70624" id="path981-7-0-6-1-3-8-1-1-9-4-3" rx="3.877409" ry="0.31109855" style="opacity:1;fill:#b3b3b3;fill-opacity:1;stroke:none;stroke-width:0.79707766;stroke-linecap:round;stroke-linejoin:round;stroke-miterlimit:4;stroke-dasharray:none;stroke-dashoffset:0;stroke-opacity:1"/>
<path d="m -14.436463,618.34791 h 4.7001196" id="path977-8-5-8-4-7-9-1-2-3-0-1" style="opacity:1;fill:none;fill-opacity:1;stroke:#241f1c;stroke-width:0.51981038;stroke-linecap:round;stroke-linejoin:round;stroke-miterlimit:4;stroke-dasharray:none;stroke-dashoffset:0;stroke-opacity:1"/>
<path d="m -12.693917,618.18723 -0.03712,-13.00117 1.218037,-1.3e-4 0.07123,12.99016 z" id="path979-8-6-6-8-0-8-6-3-4-6-7-8" style="opacity:1;fill:#784421;fill-opacity:1;stroke:#241f1c;stroke-width:0.64930779;stroke-linecap:round;stroke-linejoin:round;stroke-miterlimit:4;stroke-dasharray:none;stroke-dashoffset:0;stroke-opacity:1"/>
<path d="m 354.91963,238.79166 c -5.51414,4.10628 -11.47927,-4.45978 -17.79248,-7.18203 -6.31321,-2.72225 -16.63704,-1.17997 -17.43611,-8.0085 -0.79907,-6.82852 9.60192,-7.71145 15.11606,-11.81772 5.51414,-4.10628 9.34041,-13.81811 15.65362,-11.09587 6.3132,2.72225 1.87735,12.17123 2.67641,18.99976 0.79907,6.82852 7.29664,14.99808 1.7825,19.10436 z" id="path6990-2-0" style="opacity:1;fill:#2ca02c;fill-opacity:1;stroke:#241f1c;stroke-width:4.3452158;stroke-linecap:round;stroke-linejoin:round;stroke-miterlimit:4;stroke-dasharray:none;stroke-dashoffset:0;stroke-opacity:1" transform="matrix(0.21526249,-0.092599,0.092599,0.21526249,-106.1047,594.87018)"/>
<path d="m 354.91963,238.79166 c -5.51414,4.10628 -11.47927,-4.45978 -17.79248,-7.18203 -6.31321,-2.72225 -16.63704,-1.17997 -17.43611,-8.0085 -0.79907,-6.82852 9.60192,-7.71145 15.11606,-11.81772 5.51414,-4.10628 9.34041,-13.81811 15.65362,-11.09587 6.3132,2.72225 1.87735,12.17123 2.67641,18.99976 0.79907,6.82852 7.29664,14.99808 1.7825,19.10436 z" id="path6990-2" style="opacity:1;fill:#37c837;fill-opacity:1;stroke:#241f1c;stroke-width:4.3452158;stroke-linecap:round;stroke-linejoin:round;stroke-miterlimit:4;stroke-dasharray:none;stroke-dashoffset:0;stroke-opacity:1" transform="matrix(0.21526249,-0.092599,0.092599,0.21526249,-106.1047,589.85095)"/>
<ellipse cx="-12.086403" cy="618.70624" id="ellipse8503" rx="3.877409" ry="0.31109855" style="opacity:1;fill:#b3b3b3;fill-opacity:1;stroke:none;stroke-width:0.79707766;stroke-linecap:round;stroke-linejoin:round;stroke-miterlimit:4;stroke-dasharray:none;stroke-dashoffset:0;stroke-opacity:1"/>
<path d="m -14.436463,618.34791 h 4.7001196" id="path8505" style="opacity:1;fill:none;fill-opacity:1;stroke:#241f1c;stroke-width:0.51981038;stroke-linecap:round;stroke-linejoin:round;stroke-miterlimit:4;stroke-dasharray:none;stroke-dashoffset:0;stroke-opacity:1"/>
</g>
</svg>