<?xml version="1.0" encoding="utf-8"?>
<!-- Uploaded to: SVG Repo, www.svgrepo.com, Generator: SVG Repo Mixer Tools -->
<svg width="800px" height="800px" viewBox="-49.8 0 256.425 256.425" xmlns="http://www.w3.org/2000/svg"><defs><style>.a{fill:#ffffff;}.b{fill:#211715;}.c{fill:#74c66d;}</style></defs><path class="a" d="M38.893,253.849c-10.6-.122-20.55-.311-29.3-.58a7.435,7.435,0,0,1-7.214-7.642C3.713,196.6,5.138,135.8,7.344,93.057,8.19,76.988,12.618,15.3,13.67,3.97a1.234,1.234,0,0,1,1.149-1.118c4.152-.285,15.087-.487,22.108-.2A1.218,1.218,0,0,1,38.1,3.784c1.147,15.7,2.347,32.165,3.48,48.724.944,13.8,1.84,27.671,2.619,41.218,5.6.085,12.249.114,19.343.117.667-8.185,1.628-21.649,2.186-26.81a1.215,1.215,0,0,1,1.2-1.088c3.723-.062,7.632-.1,11.5-.111,3.865.015,7.774.049,11.5.111a1.215,1.215,0,0,1,1.2,1.089c.554,5.126,1.506,18.447,2.173,26.646,6.953-.07,13.572-.137,19.326-.193,1.725-29.722,4.036-61.436,5.744-89.869a1.22,1.22,0,0,1,1.185-1.153c6.71-.195,18.213.088,22.447.386a1.223,1.223,0,0,1,1.142,1.11c1.074,11.962,5.483,72.977,6.331,89.1,2.223,43.071,3.653,103.4,5,152.5A7.433,7.433,0,0,1,147.2,253.2C118.179,253.894,74.839,254.261,38.893,253.849Z"/><path class="b" d="M38.893,251.449q-12.237-.142-24.472-.443c-2.806-.074-6.389.5-8.435-1.882-1.919-2.232-1.152-5.686-1.079-8.383q.609-22.523,1.208-45.047.631-23.071,1.362-46.139c.467-14.314.98-28.627,1.618-42.935q.589-13.233,1.435-26.449.969-14.885,2.039-29.762,1.066-15.063,2.2-30.121.418-5.542.86-11.083.156-1.929.321-3.858.032-.368.064-.733a1.545,1.545,0,0,0,.028-.309c-.083-.65-.363.594-.564.793-.258.256-.648.116-.049.116.268,0,.54-.03.808-.043q.873-.043,1.746-.075c3.095-.114,6.193-.165,9.289-.18q2.475-.012,4.95.016,1.177.015,2.355.042c.345.008.691.018,1.036.028.166,0,.336.021.5.016.477-.012.484.218.174-.13l-.278-.316q-.372-.615-.262-.081A2.452,2.452,0,0,0,35.8,5.2l.1,1.42.243,3.326.453,6.229q.468,6.437.93,12.873Q39.4,55.1,41.045,81.16q.387,6.282.749,12.566a2.451,2.451,0,0,0,2.4,2.4c6.447.1,12.895.114,19.343.117a2.458,2.458,0,0,0,2.4-2.4c.4-4.907.765-9.817,1.149-14.725q.271-3.475.561-6.948.121-1.436.253-2.871.055-.609.115-1.218a3.56,3.56,0,0,0,.045-.441l.042-.412q-1.542.936-.718,1.109c.357.243,1.684-.024,2.12-.03q1.074-.015,2.148-.025,2.657-.028,5.312-.041c3.217-.017,6.433.018,9.649.057.787.009,1.579.049,2.365.032,1.529-.032-.711.115-.249-1.1a1.879,1.879,0,0,0,.043.414c.016.915.179,1.852.26,2.763.194,2.192.371,4.387.546,6.581.441,5.564.852,11.13,1.3,16.692a2.448,2.448,0,0,0,2.4,2.4q9.663-.1,19.326-.193a2.452,2.452,0,0,0,2.4-2.4c1.154-19.844,2.5-39.675,3.811-59.509q.949-14.391,1.838-28.785a2.905,2.905,0,0,0,.054-.9l.014-.225A1.272,1.272,0,0,1,120,4.78c.009.179-.278-.006.133.069a3.672,3.672,0,0,0,.618-.014q1.329-.026,2.659-.031c1.953-.011,3.906,0,5.859.029,3.485.047,6.972.128,10.454.291.549.026,1.121.106,1.67.089a1.867,1.867,0,0,0,.4.025c-.6.322-.911-1.256-1.061-1.177a3.108,3.108,0,0,0,.042.473c.008.647.112,1.308.166,1.953q.217,2.637.423,5.274.581,7.407,1.126,14.816,1.384,18.627,2.674,37.261c.665,9.6,1.355,19.2,1.87,28.813.865,16.144,1.46,32.3,2.016,48.46q.944,27.4,1.664,54.8.378,13.691.741,27.382.177,6.584.354,13.167l.174,6.433c.046,1.679.336,3.485-.411,5.05-1.556,3.258-5.107,2.876-8.148,2.943q-5.691.125-11.381.222-12.662.219-25.325.337-27.426.265-54.855.114-6.486-.04-12.971-.114c-3.09-.035-3.092,4.765,0,4.8q28.044.319,56.091.095c17.068-.111,34.136-.32,51.2-.717,4.056-.094,7.848-1.7,9.677-5.554a12.877,12.877,0,0,0,.951-6.149l-.18-6.624q-.371-13.74-.738-27.481-.761-28.2-1.633-56.395c-.563-17.5-1.188-35-2.016-52.494-.49-10.353-1.159-20.693-1.864-31.034q-1.3-19.133-2.716-38.258c-.668-9.088-1.241-18.195-2.1-27.267-.2-2.154-1.315-3.7-3.578-3.92-1.314-.13-2.649-.148-3.967-.2Q132.339.034,126.654.006C124.791,0,122.928,0,121.066.03c-2.219.038-4.481.379-5.029,2.95a24.532,24.532,0,0,0-.263,3.568q-.119,1.932-.238,3.863-.23,3.682-.464,7.364c-1.3,20.344-2.71,40.681-3.979,61.027q-.458,7.342-.886,14.685l2.4-2.4q-9.663.094-19.326.193l2.4,2.4c-.451-5.562-.862-11.128-1.3-16.692-.189-2.38-.381-4.761-.6-7.139-.225-2.486-.186-5.6-3.231-6.218a29.8,29.8,0,0,0-5.372-.149q-2.9-.032-5.8-.044c-3.529-.016-7.06.029-10.589.078-1.684.024-3.342-.078-4.566,1.266-.941,1.033-.932,2.455-1.058,3.766-.222,2.314-.411,4.63-.6,6.946-.493,6.115-.939,12.234-1.436,18.349l2.4-2.4c-6.448,0-12.9-.021-19.343-.117l2.4,2.4C45.56,75.765,44.36,57.815,43.1,39.87q-.935-13.291-1.908-26.579-.236-3.217-.47-6.435c-.147-2.022.128-4.652-1.78-5.936-1.381-.93-3.29-.724-4.9-.758Q31.52.11,29,.112q-4.9,0-9.8.143C16.483.34,12.27-.173,11.387,3.187A22.984,22.984,0,0,0,11.006,7q-.189,2.28-.368,4.562-1.1,13.944-2.086,27.9Q7.379,55.691,6.277,71.927c-.542,8.048-1.085,16.1-1.486,24.154-.71,14.261-1.261,28.53-1.755,42.8Q2.217,162.535,1.578,186.2.918,209.737.307,233.282q-.149,5.566-.3,11.131c-.094,3.46.733,6.72,3.539,8.991,3.065,2.482,6.71,2.291,10.446,2.391q6.054.16,12.108.267,6.4.115,12.793.187C41.983,256.285,41.985,251.485,38.893,251.449Z"/><path class="c" d="M52.48,150.862a.773.773,0,0,0,1.084-.062,35.593,35.593,0,0,1,21.3-10.981A40.214,40.214,0,0,1,87.528,140a37.244,37.244,0,0,1,6.068,1.67,28.108,28.108,0,0,1,3.175,1.364l-2.393,4.89a.771.771,0,0,0,.722,1.108c5-.157,9.751-.366,16.437-.358a.884.884,0,0,0,.786-1.29c-2.588-5-4.989-9.7-8.523-15.94a.779.779,0,0,0-1.378.042l-2.3,4.707c-.377-.185-.746-.387-1.136-.542l-.957-.409c-.588-.249-1.17-.512-1.777-.711a44.9,44.9,0,0,0-7.36-2.025,47.8,47.8,0,0,0-15.109-.225A43.244,43.244,0,0,0,47.868,145.74a.786.786,0,0,0,.066,1.114Z"/><path class="c" d="M115.721,164.051a.776.776,0,0,0-.468.981,35.588,35.588,0,0,1-.635,23.956A40.182,40.182,0,0,1,108.361,200a37.2,37.2,0,0,1-4.386,4.513,27.936,27.936,0,0,1-2.725,2.126l-3.132-4.452a.772.772,0,0,0-1.319.1c-2.27,4.455-4.376,8.721-7.6,14.577a.884.884,0,0,0,.752,1.31c5.628.139,10.908.3,18.075.207a.78.78,0,0,0,.627-1.228l-3.017-4.286c.344-.241.7-.467,1.023-.734l.819-.642c.5-.4,1.013-.779,1.479-1.215a44.809,44.809,0,0,0,5.32-5.475,47.8,47.8,0,0,0,7.473-13.132,43.244,43.244,0,0,0,.684-29.19.786.786,0,0,0-1.009-.479Z"/><path class="c" d="M73.559,212.066a.773.773,0,0,0-.62-.891,35.591,35.591,0,0,1-20.5-12.4,40.221,40.221,0,0,1-6.473-10.885,37.213,37.213,0,0,1-1.752-6.045,28.063,28.063,0,0,1-.5-3.419l5.419-.52a.772.772,0,0,0,.566-1.195c-2.75-4.177-5.415-8.117-8.907-13.819a.885.885,0,0,0-1.511,0c-2.905,4.822-5.659,9.331-9.122,15.6a.78.78,0,0,0,.757,1.153l5.217-.5c.04.418.06.838.132,1.252l.152,1.029c.1.631.177,1.265.325,1.886a44.79,44.79,0,0,0,2.126,7.332,47.808,47.808,0,0,0,7.715,12.992,43.248,43.248,0,0,0,25.029,15.036.785.785,0,0,0,.915-.64Z"/></svg>