<?xml version="1.0" ?>
<!-- Uploaded to: SVG Repo, www.svgrepo.com, Generator: SVG Repo Mixer Tools -->
<svg fill="#000000" width="800px" height="800px" viewBox="0 0 512 512" xmlns="http://www.w3.org/2000/svg">
<title/>
<g id="education_about_plastic">
<path d="M404.55,326.53H386.6v-2.61a7,7,0,0,0-4.74-6.63A154.55,154.55,0,0,0,334,310.4c-32.05.47-58.42,11.78-76.81,32.82-18.4-21-44.77-32.35-76.82-32.82a155.28,155.28,0,0,0-47.89,6.89,7,7,0,0,0-4.73,6.63v2.61H109.37a7,7,0,0,0-7,7V494.74c0,.25,0,.49,0,.73l.06.37c0,.18.06.35.1.52l.09.36c.08.25.16.48.25.71a.56.56,0,0,1,0,.12l.13.24c.08.16.16.32.25.48s.13.2.19.3a6.21,6.21,0,0,0,.47.64l.18.2c.15.16.3.32.46.47l.19.17a6.12,6.12,0,0,0,.7.53l.1.06a6.16,6.16,0,0,0,.71.4l.15.07a6.49,6.49,0,0,0,.87.33h0a7.86,7.86,0,0,0,.84.19l.22,0a7,7,0,0,0,.92.07H404.55a7.14,7.14,0,0,0,.93-.07l.22,0a7.13,7.13,0,0,0,.8-.18l.08,0a8.71,8.71,0,0,0,.85-.32l.18-.09a5.32,5.32,0,0,0,.66-.37l.14-.08c.24-.16.47-.34.69-.52l.17-.16a6.14,6.14,0,0,0,.51-.51l.12-.14a6.05,6.05,0,0,0,.53-.72l.09-.14a7.44,7.44,0,0,0,.42-.79s0,0,0,0h0a7,7,0,0,0,.32-.91.65.65,0,0,0,0-.13,6.91,6.91,0,0,0,.16-.79,1.11,1.11,0,0,0,0-.17,7.37,7.37,0,0,0,.05-.82V333.53A7,7,0,0,0,404.55,326.53Zm-288.18,14h11.36V464.47L116.37,476.8Zm9,147.21,13-14.06q2.78-.48,5.47-.85a157.45,157.45,0,0,1,53.88,1.38,136.26,136.26,0,0,1,24.56,7.48,124.06,124.06,0,0,1,12.62,6.05Zm124.83-7.17c-3-2-6.63-4.17-10.78-6.36a146.57,146.57,0,0,0-39.75-14,163.24,163.24,0,0,0-32-3.11A183.35,183.35,0,0,0,141.73,459V329.17c1-.27,2.21-.57,3.53-.88a146.43,146.43,0,0,1,35.29-3.88c23.45.42,42.77,7,57.68,19.71a79.66,79.66,0,0,1,11.93,12.63Zm14,0V356.75a79.55,79.55,0,0,1,12-12.65c14.91-12.67,34.22-19.27,57.66-19.69a147,147,0,0,1,35.13,3.84c1.38.33,2.62.64,3.69.92V459a171.37,171.37,0,0,0-57.91,1.24,146.44,146.44,0,0,0-39.75,14C270.78,476.4,267.19,478.57,264.16,480.57Zm15.34,7.17a126.22,126.22,0,0,1,12.62-6.05,134.67,134.67,0,0,1,24.48-7.48,160.23,160.23,0,0,1,55.83-1.1c1.23.18,2.43.37,3.6.58l12.73,14.05Zm118.05-11.15L386.6,464.51v-124h10.95Z"/>
<path d="M344.17,435.23a7,7,0,0,0,2.87-13.7c-39.51-8.27-62.32,12.1-63.27,13a7,7,0,1,0,9.46,10.32C293.41,444.66,311.61,428.41,344.17,435.23Z"/>
<path d="M287.58,415.3a7,7,0,0,0,4.73-1.84c.18-.17,18.38-16.42,50.94-9.6a7,7,0,1,0,2.87-13.71c-39.51-8.26-62.31,12.11-63.27,13a7,7,0,0,0,4.73,12.17Z"/>
<path d="M165.51,421.53a7,7,0,1,0,2.87,13.7c32.09-6.72,50.12,8.88,51,9.62a7,7,0,0,0,9.43-10.34C227.82,433.63,205,413.25,165.51,421.53Z"/>
<path d="M166.42,390.15a7,7,0,1,0,2.87,13.71c32.1-6.72,50.13,8.87,51,9.62a7,7,0,0,0,9.43-10.35C228.74,402.26,205.93,381.88,166.42,390.15Z"/>
<path d="M416,7.64H96A40.41,40.41,0,0,0,55.64,48V242A40.4,40.4,0,0,0,96,282.33H228a.21.21,0,0,1,.17.1l15.79,25a14.2,14.2,0,0,0,24,0l15.79-25a.21.21,0,0,1,.17-.1H416.79a39.61,39.61,0,0,0,39.57-39.56V48A40.41,40.41,0,0,0,416,7.64Zm26.36,235.13a25.6,25.6,0,0,1-25.57,25.56H284A14.14,14.14,0,0,0,272,275l-15.78,25a.23.23,0,0,1-.36,0L240,275a14.14,14.14,0,0,0-12-6.63H96A26.38,26.38,0,0,1,69.64,242V48A26.39,26.39,0,0,1,96,21.64H416A26.39,26.39,0,0,1,442.36,48Z"/>
<path d="M247.43,40.59l-21.38,0h0a13.23,13.23,0,0,0-13.23,13.24l0,34.09-30.33,0,0-34.1a13.26,13.26,0,0,0-13.22-13.27H147.87a13.25,13.25,0,0,0-13.23,13.24l-.16,172a19.92,19.92,0,0,0,19.89,20l86.18.08h0a19.92,19.92,0,0,0,19.91-19.94l.17-172A13.25,13.25,0,0,0,247.43,40.59Zm-65,61.29,30.33,0V110a4.73,4.73,0,0,1-1.37,3.34,4.62,4.62,0,0,1-3.28,1.36h0l-21,0a4.69,4.69,0,0,1-4.65-4.71Zm64,124a6,6,0,0,1-1.74,4.22,5.86,5.86,0,0,1-4.17,1.73h0l-86.18-.08a5.82,5.82,0,0,1-4.17-1.74,5.9,5.9,0,0,1-1.73-4.22l.16-171.25h19.84l0,55.48a18.7,18.7,0,0,0,18.64,18.72l21,0h0a18.68,18.68,0,0,0,18.65-18.68l.05-55.48h19.84Z"/>
<path d="M371.9,111.23,349,80.23V69.09h4.25a7,7,0,0,0,7-7V47.34a13.73,13.73,0,0,0-13.73-13.72h-37a13.71,13.71,0,0,0-13.72,13.73V62.11a7,7,0,0,0,7,7h3.58V81.38L284,111.1A41.58,41.58,0,0,0,275.67,136l0,87.38a24.94,24.94,0,0,0,24.94,24.94h0l54.4,0A25,25,0,0,0,380,223.31l0-87.61A41,41,0,0,0,371.9,111.23ZM346.29,47.62v7.47H309.84V47.63ZM335,73.46v4.26H320.42V69.1H335Zm20,160.8-54.4,0h0a10.94,10.94,0,0,1-10.94-10.94l0-87.39a27.4,27.4,0,0,1,5.5-16.42l21-27.8h24l20.53,27.82A27.2,27.2,0,0,1,366,135.71l0,87.6A11,11,0,0,1,355.06,234.26Z"/>
</g>
</svg>