<?xml version="1.0" encoding="iso-8859-1"?>
<!-- Uploaded to: SVG Repo, www.svgrepo.com, Generator: SVG Repo Mixer Tools -->
<svg version="1.1" id="Layer_1" xmlns="http://www.w3.org/2000/svg" xmlns:xlink="http://www.w3.org/1999/xlink" 
	 viewBox="0 0 511.994 511.994" xml:space="preserve">
<path style="fill:#6DC180;" d="M511.993,110.71c0,183.579-148.55,332.129-332.129,332.129H69.154v-110.71
	C69.154,148.55,217.704,0,401.283,0h110.71V110.71z"/>
<path style="fill:#5CA15D;" d="M179.863,442.839c183.579,0,332.129-148.55,332.129-332.129V0L69.154,442.839H179.863z"/>
<polygon style="fill:#FFEA8A;" points="290.573,306.581 290.573,246.968 222.444,246.968 290.573,136.258 290.573,195.871 
	358.702,195.871 "/>
<rect x="73.421" y="298.614" transform="matrix(-0.7071 -0.7071 0.7071 -0.7071 -123.1028 775.0629)" style="fill:#4E894D;" width="51.096" height="228.826"/>
<polygon style="fill:#FFDB2D;" points="265.025,246.968 290.573,246.968 290.573,306.581 358.702,195.871 316.122,195.871 "/>
</svg>