<?xml version="1.0" ?>
<!-- Uploaded to: SVG Repo, www.svgrepo.com, Generator: SVG Repo Mixer Tools -->
<svg width="800px" height="800px" viewBox="0 0 80 80" enable-background="new 0 0 80 80" id="Layer_1" version="1.1" xml:space="preserve" xmlns="http://www.w3.org/2000/svg" xmlns:xlink="http://www.w3.org/1999/xlink">
<g>
<g>
<path d="    M31,33l0,25.83c0,1.624,1.216,3.081,2.839,3.165C35.569,62.086,37,60.71,37,59c0,1.657,1.343,3,3,3s3-1.343,3-3    c0,1.71,1.431,3.086,3.161,2.996C47.784,61.911,49,60.455,49,58.83V33c0-4.971-4.029-9-9-9h0C35.029,24,31,28.029,31,33z" fill="none" stroke="#000000" stroke-linecap="round" stroke-linejoin="round" stroke-miterlimit="10" stroke-width="4"/>
<path d="    M41.6,18h-3.2c-1.325,0-2.4,1.075-2.4,2.4v1.2c0,1.325,1.075,2.4,2.4,2.4h3.2c1.325,0,2.4-1.075,2.4-2.4v-1.2    C44,19.075,42.925,18,41.6,18z" fill="none" stroke="#000000" stroke-linecap="round" stroke-linejoin="round" stroke-miterlimit="10" stroke-width="4"/>
<line fill="none" stroke="#000000" stroke-linecap="round" stroke-linejoin="round" stroke-miterlimit="10" stroke-width="4" x1="31" x2="49" y1="41" y2="41"/>
<line fill="none" stroke="#000000" stroke-linecap="round" stroke-linejoin="round" stroke-miterlimit="10" stroke-width="4" x1="31" x2="49" y1="52" y2="52"/>
</g>
<g>
<polyline fill="none" points="    5.055,17.84 13.99,16.581 15.256,25.527   " stroke="#000000" stroke-linecap="round" stroke-linejoin="round" stroke-miterlimit="10" stroke-width="4"/>
<path d="    M10.565,58.929C7.37,53.972,5.379,48.144,5.048,41.832C4.542,32.18,7.996,23.238,13.99,16.581" fill="none" stroke="#000000" stroke-linecap="round" stroke-linejoin="round" stroke-miterlimit="10" stroke-width="4"/>
<polyline fill="none" points="    17.84,74.945 16.581,66.01 25.527,64.744   " stroke="#000000" stroke-linecap="round" stroke-linejoin="round" stroke-miterlimit="10" stroke-width="4"/>
<path d="    M58.929,69.435c-4.958,3.195-10.785,5.187-17.097,5.517c-9.652,0.506-18.595-2.948-25.251-8.942" fill="none" stroke="#000000" stroke-linecap="round" stroke-linejoin="round" stroke-miterlimit="10" stroke-width="4"/>
<polyline fill="none" points="    74.945,62.16 66.01,63.419 64.744,54.473   " stroke="#000000" stroke-linecap="round" stroke-linejoin="round" stroke-miterlimit="10" stroke-width="4"/>
<path d="    M69.435,21.071c3.195,4.958,5.187,10.785,5.517,17.097c0.506,9.652-2.948,18.595-8.942,25.251" fill="none" stroke="#000000" stroke-linecap="round" stroke-linejoin="round" stroke-miterlimit="10" stroke-width="4"/>
<polyline fill="none" points="    62.16,5.055 63.419,13.99 54.473,15.256   " stroke="#000000" stroke-linecap="round" stroke-linejoin="round" stroke-miterlimit="10" stroke-width="4"/>
<path d="    M21.071,10.565c4.958-3.195,10.785-5.187,17.097-5.517c9.652-0.506,18.595,2.948,25.251,8.942" fill="none" stroke="#000000" stroke-linecap="round" stroke-linejoin="round" stroke-miterlimit="10" stroke-width="4"/>
</g>
</g>
</svg>