<?xml version="1.0" encoding="iso-8859-1"?>
<!-- Uploaded to: SVG Repo, www.svgrepo.com, Generator: SVG Repo Mixer Tools -->
<svg height="800px" width="800px" version="1.1" id="Layer_1" xmlns="http://www.w3.org/2000/svg" xmlns:xlink="http://www.w3.org/1999/xlink" 
	 viewBox="0 0 512.001 512.001" xml:space="preserve">
<path style="fill:#7AB9E8;" d="M217.462,101.85c111.943,0,165.161,88.086,165.161,143.14l-297.29-55.054
	C85.333,135.433,155.802,101.85,217.462,101.85z"/>
<path style="fill:#61AAE4;" d="M360.498,240.893l22.126,4.097c0-55.054-53.218-143.14-165.161-143.14
	c-3.492,0-7.012,0.113-10.545,0.326C308.384,107.811,358.048,187.651,360.498,240.893z"/>
<path style="fill:#D1E5F5;" d="M8.258,278.022c0-11.011,88.735-132.129,198.194-132.129s198.194,121.118,198.194,132.129
	s-88.735,132.129-198.194,132.129S8.258,289.033,8.258,278.022z"/>
<path style="fill:#7AB9E8;" d="M55.054,272.517c0-7.59,6.174-13.763,13.763-13.763s13.763,6.174,13.763,13.763
	s-6.174,13.763-13.763,13.763S55.054,280.106,55.054,272.517z"/>
<path style="fill:#61AAE4;" d="M68.817,258.753c-1.958,0-3.817,0.417-5.505,1.157c4.855,2.128,8.258,6.975,8.258,12.606
	s-3.403,10.478-8.258,12.606c1.688,0.74,3.548,1.157,5.505,1.157c7.59,0,13.763-6.174,13.763-13.763S76.407,258.753,68.817,258.753z
	"/>
<path style="fill:#7AB9E8;" d="M331.502,395.964c-28.75-17.346-47.975-48.883-47.975-84.909c54.73,0,99.097,44.367,99.097,99.097
	C363.921,410.151,346.428,404.969,331.502,395.964"/>
<path style="fill:#61AAE4;" d="M360.571,407.685c7.092,1.612,14.473,2.466,22.052,2.466c0-54.73-44.367-99.097-99.097-99.097
	c0,0.825,0.011,1.647,0.031,2.466C326.902,323.371,359.446,361.631,360.571,407.685z"/>
<g>
	<path style="fill:#98C8ED;" d="M503.742,178.925c0,54.73-44.367,99.097-99.097,99.097
		C404.645,223.292,449.012,178.925,503.742,178.925z"/>
	<path style="fill:#98C8ED;" d="M503.742,377.119c-54.73,0-99.097-44.367-99.097-99.097
		C459.375,278.022,503.742,322.389,503.742,377.119z"/>
</g>
<g>
	<path style="fill:#7AB9E8;" d="M481.69,181.392c-1.125,46.054-33.67,84.314-77.013,94.164c-0.02,0.82-0.031,1.642-0.031,2.466
		c54.73,0,99.097-44.367,99.097-99.097C496.162,178.925,488.782,179.78,481.69,181.392z"/>
	<path style="fill:#7AB9E8;" d="M481.69,374.652c7.092,1.612,14.473,2.466,22.052,2.466c0-54.73-44.367-99.097-99.097-99.097
		c0,0.825,0.011,1.646,0.031,2.466C448.02,290.339,480.564,328.599,481.69,374.652z"/>
</g>
<path style="fill:#B4D8F1;" d="M113.14,173.65c27.809-16.242,59.573-27.757,93.312-27.757
	c109.459,0,198.194,121.118,198.194,132.129s-88.735,132.129-198.194,132.129c-33.739,0-65.503-11.514-93.312-27.757
	c8.164-26.766,16.236-63.547,16.236-104.372C129.376,237.197,121.303,200.416,113.14,173.65z"/>
<path style="fill:#98C8ED;" d="M128.471,254.21c53.103-29.097,121.089-21.166,166.066,23.812
	C249.56,323,181.574,330.932,128.471,301.834c0.576-7.749,0.905-15.696,0.905-23.812S129.046,261.96,128.471,254.21z"/>
<path style="fill:#7AB9E8;" d="M179.577,238.009c30.266,3.477,59.618,16.797,82.835,40.013
	c-23.217,23.217-52.568,36.536-82.835,40.013c40.939,4.71,83.557-8.609,114.961-40.013
	C263.134,246.618,220.516,233.299,179.577,238.009z"/>
<path style="fill:#98C8ED;" d="M206.452,145.893c-5.575,0-11.096,0.32-16.554,0.919c101.748,11.096,181.715,120.757,181.715,131.21
	s-79.967,120.114-181.715,131.21c5.458,0.598,10.979,0.919,16.554,0.919c109.459,0,198.194-121.118,198.194-132.129
	S315.911,145.893,206.452,145.893z"/>
<g>
	<path style="fill:#2E2D31;" d="M68.817,258.753c-7.59,0-13.763,6.174-13.763,13.763s6.174,13.763,13.763,13.763
		s13.763-6.174,13.763-13.763S76.407,258.753,68.817,258.753z"/>
	<path style="fill:#2E2D31;" d="M445.924,278.022C484.69,261.814,512,223.501,512,178.925c0-4.561-3.697-8.258-8.258-8.258
		c-50.474,0-92.916,35.016-104.33,82.03c-1.197-1.616-6.951-9.002-8.589-10.998c-1.061-31.615-17.253-67.548-42.798-94.596
		c-23.055-24.412-64.423-53.512-130.562-53.512c-49.074,0-98.412,19.852-122.771,49.4c-2.901,3.519-2.4,8.724,1.119,11.625
		c3.52,2.901,8.724,2.399,11.625-1.119c21.395-25.953,65.612-43.39,110.027-43.39c92.774,0,140.136,61.499,153.131,109.135
		c-5.988-6.102-12.222-12.035-18.533-17.606c-33.081-29.197-85.195-64.002-145.608-64.002c-99.097,0-176.997,94.406-189.138,110.029
		C5.825,262.444,0,272.658,0,278.022S5.825,293.6,17.313,308.38c12.142,15.623,91.143,110.029,189.138,110.029
		c60.414,0,112.528-34.805,145.608-64.002c0.623-0.551,1.244-1.11,1.866-1.667c11.408,13.948,18.338,30.814,20.032,48.741
		c-13.508-1.287-26.563-5.574-38.189-12.587c-3.904-2.355-8.98-1.1-11.337,2.804c-2.356,3.906-1.1,8.98,2.804,11.337
		c16.67,10.058,35.822,15.374,55.386,15.374c4.561,0,8.258-3.697,8.258-8.258c0-25.363-8.785-49.471-24.891-68.741
		c10.848-10.668,21.048-22.027,29.6-33.03c1.355-1.743,2.625-3.418,3.822-5.034c11.413,47.014,53.856,82.03,104.33,82.03
		c4.561,0,8.258-3.697,8.258-8.258C512,332.543,484.689,294.23,445.924,278.022z M495.073,187.594
		c-4.106,43.186-38.574,77.654-81.76,81.76C417.42,226.168,451.888,191.7,495.073,187.594z M16.824,278.022
		c3.455-7.71,24.165-37.487,57.816-66.505c8.279-7.139,17.844-14.65,28.459-21.801c5.886,14.262,18.018,48.479,18.018,88.306
		c0,39.829-12.133,74.048-18.018,88.307c-10.615-7.151-20.179-14.663-28.459-21.802C40.99,315.509,20.28,285.732,16.824,278.022z
		 M206.452,401.893c-32.94,0-63.465-11.633-89.16-26.644c4.312-9.944,12.948-32.33,17.454-61.08
		c17.187,7.726,35.921,12.18,54.818,12.951c0.116,0.004,0.229,0.007,0.342,0.007c4.405,0,8.064-3.479,8.245-7.921
		c0.186-4.557-3.357-8.401-7.915-8.587c-18.535-0.756-36.89-5.495-53.408-13.733c0.512-6.103,0.804-12.405,0.804-18.864
		c0-6.463-0.292-12.768-0.805-18.874c47.628-23.777,105.718-16.119,145.636,18.878c-16.089,14.138-35.349,24.139-56.172,29.104
		c-4.436,1.058-7.176,5.511-6.118,9.948c0.904,3.793,4.29,6.346,8.026,6.346c0.634-0.001,1.278-0.074,1.922-0.228
		c26.56-6.332,50.853-19.934,70.253-39.334c3.225-3.225,3.225-8.454,0-11.678c-23.114-23.114-52.409-37.648-84.718-42.032
		c-27.463-3.725-55.778,0.433-80.913,11.719c-4.507-28.747-13.142-51.132-17.454-61.074c25.696-15.012,56.221-26.645,89.161-26.645
		c107.171,0,185.715,115.797,189.627,123.871C392.624,285.732,312.889,401.893,206.452,401.893z M413.314,286.691
		c43.186,4.106,77.654,38.574,81.76,81.76C451.888,364.344,417.42,329.876,413.314,286.691z"/>
</g>
</svg>