<?xml version="1.0" encoding="iso-8859-1"?>
<!-- Uploaded to: SVG Repo, www.svgrepo.com, Generator: SVG Repo Mixer Tools -->
<svg height="800px" width="800px" version="1.1" id="Layer_1" xmlns="http://www.w3.org/2000/svg" xmlns:xlink="http://www.w3.org/1999/xlink" 
	 viewBox="0 0 262.759 262.759" xml:space="preserve">
<g>
	<g>
		<g>
			<g id="XMLID_23_">
				<g>
					<g>
						<path style="fill:#2D213F;" d="M210.747,75.576c43.704,42.742,43.704,112.303-0.032,155.046
							c-21.179,20.73-49.343,32.137-79.301,32.137s-58.122-11.407-79.333-32.137c-21.179-20.698-32.842-48.253-32.842-77.539
							s11.663-56.84,32.842-77.539l73.406-73.213c3.14-3.108,8.715-3.108,11.823,0L210.747,75.576z M199.021,219.186
							c37.296-36.43,37.296-95.77,0-132.2c0-0.032-0.032-0.032-0.064-0.064l-67.542-67.35l-67.574,67.35
							c-18.103,17.719-28.036,41.204-28.036,66.164s9.933,48.446,28.004,66.1c18.039,17.654,42.07,27.395,67.606,27.395
							S180.95,236.841,199.021,219.186z"/>
					</g>
					<g>
						<path style="fill:#2D213F;" d="M189.12,88.011c1.25,1.089,30.407,27.459,24.031,70.49c-0.609,4.037-4.133,6.921-8.202,6.921
							c-0.384,0-0.769-0.032-1.186-0.064c-4.518-0.641-7.658-4.774-6.985-9.164c5.127-34.604-18.52-55.975-18.744-56.2
							c-3.396-2.98-3.653-8.106-0.609-11.407C180.501,85.256,185.724,84.999,189.12,88.011z"/>
					</g>
					<g>
						<path style="fill:#2D213F;" d="M203.57,171.667c3.845,2.403,4.998,7.401,2.531,11.15l-4.55,6.985
							c-1.57,2.403-4.229,3.749-6.985,3.749c-1.506,0-3.044-0.417-4.422-1.282c-3.845-2.403-4.998-7.401-2.531-11.15l4.518-6.985
							C194.599,170.353,199.725,169.264,203.57,171.667z"/>
					</g>
					<g>
						<path style="fill:#AAE1E9;" d="M199.021,86.983c37.296,36.43,37.296,95.77,0,132.2c-18.071,17.655-42.07,27.395-67.606,27.395
							s-49.567-9.74-67.606-27.395c-18.071-17.654-28.004-41.14-28.004-66.1s9.933-48.446,28.036-66.164l67.574-67.35l67.542,67.35
							C198.989,86.954,199.021,86.954,199.021,86.983z M213.15,158.498c6.376-43.031-22.781-69.4-24.031-70.49
							c-3.396-3.012-8.619-2.756-11.695,0.577c-3.044,3.3-2.788,8.427,0.609,11.407c0.224,0.224,23.87,21.596,18.744,56.2
							c-0.673,4.39,2.467,8.523,6.985,9.164c0.417,0.032,0.801,0.064,1.186,0.064C209.017,165.419,212.542,162.538,213.15,158.498z
							 M206.102,182.817c2.467-3.749,1.314-8.747-2.531-11.15s-8.971-1.314-11.439,2.467l-4.518,6.985
							c-2.467,3.749-1.314,8.747,2.531,11.15c1.378,0.865,2.916,1.282,4.422,1.282c2.756,0,5.415-1.346,6.985-3.749L206.102,182.817
							z"/>
					</g>
				</g>
			</g>
		</g>
		<path style="fill:#92C1CA;" d="M47.602,108.05c-7.696,13.656-11.797,29.039-11.797,45.037c0,24.96,9.933,48.446,28.004,66.1
			c18.039,17.654,42.07,27.395,67.606,27.395c20,0,39.042-5.998,55.046-17.071C77.357,235.803,49.209,163.769,47.602,108.05z"/>
	</g>
</g>
</svg>